Normalized EMG Linear Envelopes
nRows=237
nColumns=4

endheader
time	 med_gas_r	  soleus_r	 tib_ant_r	
3.45968	  0.011077	  0.017311	  0.008999	
3.49294	  0.010960	  0.016158	  0.008561	
3.52621	  0.010898	  0.015148	  0.008204	
3.55948	  0.010931	  0.014369	  0.008002	
3.59274	  0.011083	  0.013848	  0.008013	
3.62601	  0.011322	  0.013538	  0.008264	
3.65927	  0.011620	  0.013373	  0.008722	
3.69254	  0.011974	  0.013252	  0.009286	
3.72581	  0.012326	  0.013099	  0.009825	
3.75907	  0.012574	  0.012910	  0.010189	
3.79234	  0.012643	  0.012686	  0.010290	
3.8256	  0.012542	  0.012434	  0.010167	
3.85887	  0.012393	  0.012144	  0.009920	
3.89214	  0.012324	  0.011848	  0.009641	
3.9254	  0.012370	  0.011587	  0.009359	
3.95867	  0.012492	  0.011372	  0.009083	
3.99194	  0.012666	  0.011195	  0.008815	
4.0252	  0.012862	  0.011044	  0.008577	
4.05847	  0.013035	  0.010885	  0.008364	
4.09173	  0.013127	  0.010694	  0.008106	
4.125	  0.013131	  0.010498	  0.007797	
4.15827	  0.013046	  0.010344	  0.007516	
4.19153	  0.012882	  0.010285	  0.007312	
4.2248	  0.012689	  0.010353	  0.007194	
4.25806	  0.012527	  0.010568	  0.007137	
4.29133	  0.012446	  0.010942	  0.007102	
4.3246	  0.012473	  0.011458	  0.007074	
4.35786	  0.012593	  0.012092	  0.007044	
4.39113	  0.012723	  0.012774	  0.007034	
4.4244	  0.012727	  0.013392	  0.007075	
4.45766	  0.012569	  0.013849	  0.007157	
4.49093	  0.012360	  0.014132	  0.007243	
4.52419	  0.012187	  0.014256	  0.007276	
4.55746	  0.012054	  0.014254	  0.007197	
4.59073	  0.011918	  0.014184	  0.006943	
4.62399	  0.011758	  0.014095	  0.006442	
4.65726	  0.011542	  0.014014	  0.005652	
4.69052	  0.011260	  0.013882	  0.004550	
4.72379	  0.010951	  0.013676	  0.003211	
4.75706	  0.010643	  0.013454	  0.001819	
4.79032	  0.010348	  0.013286	  0.000720	
4.82359	  0.010112	  0.013285	  0.000403	
4.85685	  0.009981	  0.013650	  0.001515	
4.89012	  0.009981	  0.014588	  0.004933	
4.92339	  0.010179	  0.016237	  0.011678	
4.95665	  0.010656	  0.018702	  0.022796	
4.98992	  0.011485	  0.022022	  0.039213	
5.02319	  0.012763	  0.026112	  0.061562	
5.05645	  0.014594	  0.030869	  0.090091	
5.08972	  0.017052	  0.036393	  0.124309	
5.12298	  0.020086	  0.042940	  0.163336	
5.15625	  0.023590	  0.050785	  0.206717	
5.18952	  0.027520	  0.060226	  0.254338	
5.22278	  0.031801	  0.071162	  0.305508	
5.25605	  0.036270	  0.082897	  0.357770	
5.28931	  0.040731	  0.094327	  0.407230	
5.32258	  0.044982	  0.104561	  0.451203	
5.35585	  0.048800	  0.112876	  0.488155	
5.38911	  0.051845	  0.118660	  0.516721	
5.42238	  0.053997	  0.121934	  0.534531	
5.45565	  0.055297	  0.123476	  0.541959	
5.48891	  0.055812	  0.123855	  0.541997	
5.52218	  0.055719	  0.123663	  0.537814	
5.55544	  0.055224	  0.123387	  0.532454	
5.58871	  0.054504	  0.122951	  0.528328	
5.62198	  0.053786	  0.122322	  0.525943	
5.65524	  0.053261	  0.121625	  0.526677	
5.68851	  0.052955	  0.120483	  0.529850	
5.72177	  0.052659	  0.119053	  0.533200	
5.75504	  0.052032	  0.117312	  0.534722	
5.78831	  0.050980	  0.115542	  0.533177	
5.82157	  0.049855	  0.114503	  0.528197	
5.85484	  0.049125	  0.114738	  0.521611	
5.8881	  0.048885	  0.116176	  0.516001	
5.92137	  0.049080	  0.118624	  0.512009	
5.95464	  0.049787	  0.121727	  0.511837	
5.9879	  0.051013	  0.125359	  0.517004	
6.02117	  0.052802	  0.129980	  0.527363	
6.05444	  0.055033	  0.135555	  0.541269	
6.0877	  0.057499	  0.141599	  0.558337	
6.12097	  0.060022	  0.147987	  0.577700	
6.15423	  0.062225	  0.154263	  0.597055	
6.1875	  0.063600	  0.159104	  0.614253	
6.22077	  0.064146	  0.162525	  0.627743	
6.25403	  0.064094	  0.165749	  0.636757	
6.2873	  0.063592	  0.168882	  0.642132	
6.32056	  0.062852	  0.171499	  0.646291	
6.35383	  0.061898	  0.173601	  0.650210	
6.3871	  0.060781	  0.175923	  0.652298	
6.42036	  0.059540	  0.178189	  0.650285	
6.45363	  0.058319	  0.179536	  0.643628	
6.4869	  0.057421	  0.179950	  0.635959	
6.52016	  0.057226	  0.179668	  0.631106	
6.55343	  0.057913	  0.178971	  0.629242	
6.58669	  0.059600	  0.178948	  0.628575	
6.61996	  0.062126	  0.179918	  0.629172	
6.65323	  0.065242	  0.181328	  0.631411	
6.68649	  0.068686	  0.183420	  0.634635	
6.71976	  0.072125	  0.186771	  0.637939	
6.75302	  0.075252	  0.191038	  0.642284	
6.78629	  0.077644	  0.195384	  0.649348	
6.81956	  0.078618	  0.198315	  0.659248	
6.85282	  0.078021	  0.199440	  0.671191	
6.88609	  0.076360	  0.199664	  0.682019	
6.91935	  0.074240	  0.199441	  0.688959	
6.95262	  0.072082	  0.199475	  0.692579	
6.98589	  0.070085	  0.199416	  0.693650	
7.01915	  0.068523	  0.198293	  0.691295	
7.05242	  0.067771	  0.196174	  0.685530	
7.08569	  0.068055	  0.194034	  0.676648	
7.11895	  0.069288	  0.192419	  0.664560	
7.15222	  0.070922	  0.191673	  0.649688	
7.18548	  0.072272	  0.191676	  0.634036	
7.21875	  0.072928	  0.191406	  0.620094	
7.25202	  0.072933	  0.190146	  0.609486	
7.28528	  0.072533	  0.188020	  0.601921	
7.31855	  0.072000	  0.185879	  0.598779	
7.35181	  0.071601	  0.184271	  0.601781	
7.38508	  0.071287	  0.182846	  0.610663	
7.41835	  0.070863	  0.181991	  0.622326	
7.45161	  0.070422	  0.182482	  0.633050	
7.48488	  0.070129	  0.184234	  0.642996	
7.51815	  0.069945	  0.185989	  0.654277	
7.55141	  0.069767	  0.186745	  0.667375	
7.58468	  0.069761	  0.187030	  0.682485	
7.61794	  0.070027	  0.188230	  0.699980	
7.65121	  0.070716	  0.191951	  0.719036	
7.68448	  0.071802	  0.198852	  0.736418	
7.71774	  0.073176	  0.208240	  0.748769	
7.75101	  0.074562	  0.218155	  0.753416	
7.78427	  0.075642	  0.226115	  0.748943	
7.81754	  0.076278	  0.231077	  0.736776	
7.85081	  0.076917	  0.233974	  0.723108	
7.88407	  0.077747	  0.235477	  0.712317	
7.91734	  0.078786	  0.236410	  0.706755	
7.9506	  0.080096	  0.237656	  0.706603	
7.98387	  0.081662	  0.239375	  0.708777	
8.01714	  0.083434	  0.241634	  0.711258	
8.0504	  0.085603	  0.245033	  0.713460	
8.08367	  0.088105	  0.250081	  0.713398	
8.11694	  0.090264	  0.255678	  0.709388	
8.1502	  0.091666	  0.259931	  0.704200	
8.18347	  0.092009	  0.262203	  0.700106	
8.21673	  0.091194	  0.262428	  0.696321	
8.25	  0.089038	  0.260211	  0.692355	
8.28327	  0.085490	  0.254545	  0.690048	
8.31653	  0.081340	  0.245878	  0.695140	
8.3498	  0.077345	  0.235907	  0.706441	
8.38306	  0.073826	  0.224900	  0.717070	
8.41633	  0.070820	  0.212460	  0.720082	
8.4496	  0.068119	  0.198703	  0.713598	
8.48286	  0.065952	  0.185050	  0.701747	
8.51613	  0.064459	  0.173165	  0.686438	
8.5494	  0.063565	  0.163789	  0.669721	
8.58266	  0.062862	  0.156814	  0.651518	
8.61593	  0.062190	  0.152339	  0.633427	
8.64919	  0.061351	  0.150141	  0.615089	
8.68246	  0.060035	  0.149365	  0.597042	
8.71573	  0.058181	  0.149409	  0.578509	
8.74899	  0.055872	  0.149542	  0.559441	
8.78226	  0.053447	  0.150020	  0.543271	
8.81552	  0.051380	  0.151983	  0.533989	
8.84879	  0.049914	  0.155800	  0.533270	
8.88206	  0.049241	  0.161160	  0.541989	
8.91532	  0.049502	  0.167429	  0.558282	
8.94859	  0.050797	  0.174408	  0.580450	
8.98185	  0.053388	  0.183197	  0.608211	
9.01512	  0.057374	  0.194367	  0.638981	
9.04839	  0.062835	  0.208447	  0.671062	
9.08165	  0.069569	  0.226356	  0.702294	
9.11492	  0.076867	  0.247152	  0.727995	
9.14819	  0.083753	  0.267755	  0.747282	
9.18145	  0.089023	  0.284117	  0.762252	
9.21472	  0.091980	  0.294140	  0.777276	
9.24798	  0.093070	  0.298573	  0.795483	
9.28125	  0.093457	  0.300196	  0.816866	
9.31452	  0.093967	  0.300393	  0.838068	
9.34778	  0.095057	  0.299929	  0.856981	
9.38105	  0.096364	  0.298480	  0.871555	
9.41431	  0.097334	  0.296523	  0.878616	
9.44758	  0.098180	  0.296797	  0.877858	
9.48085	  0.099036	  0.299260	  0.872772	
9.51411	  0.099102	  0.300759	  0.867500	
9.54738	  0.097608	  0.298909	  0.866739	
9.58065	  0.094147	  0.292371	  0.871189	
9.61391	  0.089312	  0.282847	  0.879816	
9.64718	  0.084063	  0.272820	  0.888134	
9.68044	  0.079024	  0.263102	  0.889695	
9.71371	  0.074724	  0.254339	  0.877430	
9.74698	  0.071295	  0.247175	  0.850346	
9.78024	  0.068484	  0.240476	  0.812144	
9.81351	  0.066155	  0.232634	  0.767997	
9.84677	  0.064353	  0.223967	  0.723244	
9.88004	  0.062940	  0.215966	  0.682664	
9.91331	  0.061657	  0.208718	  0.648702	
9.94657	  0.060312	  0.201607	  0.621400	
9.97984	  0.058706	  0.194562	  0.597514	
10.0131	  0.056811	  0.187161	  0.573510	
10.0464	  0.054524	  0.177683	  0.546487	
10.0796	  0.051641	  0.164867	  0.513996	
10.1129	  0.048270	  0.149090	  0.477066	
10.1462	  0.044640	  0.131749	  0.438507	
10.1794	  0.040857	  0.114404	  0.399172	
10.2127	  0.037206	  0.098385	  0.358988	
10.246	  0.033901	  0.084378	  0.319934	
10.2792	  0.031048	  0.072872	  0.283215	
10.3125	  0.028480	  0.063774	  0.247696	
10.3458	  0.026021	  0.056366	  0.212465	
10.379	  0.023691	  0.050156	  0.177907	
10.4123	  0.021392	  0.044522	  0.142859	
10.4456	  0.019070	  0.038781	  0.107845	
10.4788	  0.016944	  0.032774	  0.075901	
10.5121	  0.015189	  0.026943	  0.049395	
10.5454	  0.013830	  0.021766	  0.029189	
10.5786	  0.012792	  0.017531	  0.015058	
10.6119	  0.011997	  0.014310	  0.006151	
10.6452	  0.011392	  0.012031	  0.001328	
10.6784	  0.010965	  0.010505	 -0.000587	
10.7117	  0.010710	  0.009514	 -0.000665	
10.745	  0.010591	  0.008912	  0.000237	
10.7782	  0.010627	  0.008568	  0.001588	
10.8115	  0.010819	  0.008382	  0.003059	
10.8448	  0.011107	  0.008327	  0.004428	
10.878	  0.011390	  0.008404	  0.005583	
10.9113	  0.011591	  0.008594	  0.006483	
10.9446	  0.011629	  0.008850	  0.007095	
10.9778	  0.011481	  0.009132	  0.007449	
11.0111	  0.011235	  0.009421	  0.007599	
11.0444	  0.010971	  0.009744	  0.007545	
11.0776	  0.010728	  0.010102	  0.007320	
11.1109	  0.010502	  0.010449	  0.007006	
11.1442	  0.010282	  0.010702	  0.006689	
11.1774	  0.010082	  0.010774	  0.006401	
11.2107	  0.009944	  0.010684	  0.006142	
11.244	  0.009867	  0.010493	  0.005899	
11.2772	  0.009828	  0.010254	  0.005683	
11.3105	  0.009820	  0.010042	  0.005516	
